<mxfile host="app.diagrams.net" modified="2023-05-28T16:37:19.618Z" agent="Mozilla/5.0 (Windows NT 10.0; Win64; x64) AppleWebKit/537.36 (KHTML, like Gecko) Chrome/113.0.0.0 Safari/537.36 Edg/113.0.1774.57" etag="Rfa8YLHlcg6JagHklYeB" version="21.3.5" type="device">
  <diagram name="Page-1" id="0783ab3e-0a74-02c8-0abd-f7b4e66b4bec">
    <mxGraphModel dx="1838" dy="1029" grid="1" gridSize="10" guides="1" tooltips="1" connect="1" arrows="1" fold="1" page="1" pageScale="1" pageWidth="850" pageHeight="1100" background="none" math="0" shadow="0">
      <root>
        <mxCell id="0" />
        <mxCell id="1" parent="0" />
        <mxCell id="1c1d494c118603dd-1" value="Create Transaksi" style="swimlane;html=1;childLayout=stackLayout;startSize=20;rounded=0;shadow=0;comic=0;labelBackgroundColor=none;strokeWidth=1;fontFamily=Verdana;fontSize=12;align=center;" parent="1" vertex="1">
          <mxGeometry x="40" y="20" width="750" height="760" as="geometry">
            <mxRectangle x="40" y="20" width="100" height="30" as="alternateBounds" />
          </mxGeometry>
        </mxCell>
        <mxCell id="1c1d494c118603dd-2" value="Pembeli" style="swimlane;html=1;startSize=20;" parent="1c1d494c118603dd-1" vertex="1">
          <mxGeometry y="20" width="250" height="740" as="geometry">
            <mxRectangle y="20" width="40" height="970" as="alternateBounds" />
          </mxGeometry>
        </mxCell>
        <mxCell id="NMtD7j1RhAjWxaGJVb-m-3" value="Membeli barang" style="rounded=1;whiteSpace=wrap;html=1;shadow=0;comic=0;labelBackgroundColor=none;strokeWidth=1;fontFamily=Verdana;fontSize=12;align=center;arcSize=50;" vertex="1" parent="1c1d494c118603dd-2">
          <mxGeometry x="53.75" y="130" width="142.5" height="30" as="geometry" />
        </mxCell>
        <mxCell id="NMtD7j1RhAjWxaGJVb-m-9" value="Membayar" style="rounded=1;whiteSpace=wrap;html=1;shadow=0;comic=0;labelBackgroundColor=none;strokeWidth=1;fontFamily=Verdana;fontSize=12;align=center;arcSize=50;" vertex="1" parent="1c1d494c118603dd-2">
          <mxGeometry x="53.75" y="280" width="142.5" height="30" as="geometry" />
        </mxCell>
        <mxCell id="1c1d494c118603dd-3" value="Sistem" style="swimlane;html=1;startSize=20;" parent="1c1d494c118603dd-1" vertex="1">
          <mxGeometry x="250" y="20" width="250" height="740" as="geometry" />
        </mxCell>
        <mxCell id="60571a20871a0731-4" value="" style="ellipse;whiteSpace=wrap;html=1;rounded=0;shadow=0;comic=0;labelBackgroundColor=none;strokeWidth=1;fillColor=#000000;fontFamily=Verdana;fontSize=12;align=center;" parent="1c1d494c118603dd-3" vertex="1">
          <mxGeometry x="105" y="50" width="40" height="40" as="geometry" />
        </mxCell>
        <mxCell id="NMtD7j1RhAjWxaGJVb-m-1" value="Menampilkan list barang dan keranjang kosong" style="rounded=1;whiteSpace=wrap;html=1;shadow=0;comic=0;labelBackgroundColor=none;strokeWidth=1;fontFamily=Verdana;fontSize=12;align=center;arcSize=50;" vertex="1" parent="1c1d494c118603dd-3">
          <mxGeometry x="47.5" y="115" width="142.5" height="60" as="geometry" />
        </mxCell>
        <mxCell id="NMtD7j1RhAjWxaGJVb-m-7" value="Menampilkan list barang dan update keranjang" style="rounded=1;whiteSpace=wrap;html=1;shadow=0;comic=0;labelBackgroundColor=none;strokeWidth=1;fontFamily=Verdana;fontSize=12;align=center;arcSize=50;" vertex="1" parent="1c1d494c118603dd-3">
          <mxGeometry x="47.5" y="265" width="142.5" height="60" as="geometry" />
        </mxCell>
        <mxCell id="NMtD7j1RhAjWxaGJVb-m-20" value="Menampilkan list barang dan keranjang kosong" style="rounded=1;whiteSpace=wrap;html=1;shadow=0;comic=0;labelBackgroundColor=none;strokeWidth=1;fontFamily=Verdana;fontSize=12;align=center;arcSize=50;" vertex="1" parent="1c1d494c118603dd-3">
          <mxGeometry x="53.75" y="570" width="142.5" height="60" as="geometry" />
        </mxCell>
        <mxCell id="60571a20871a0731-5" value="" style="shape=mxgraph.bpmn.shape;html=1;verticalLabelPosition=bottom;labelBackgroundColor=#ffffff;verticalAlign=top;perimeter=ellipsePerimeter;outline=end;symbol=terminate;rounded=0;shadow=0;comic=0;strokeWidth=1;fontFamily=Verdana;fontSize=12;align=center;" parent="1c1d494c118603dd-3" vertex="1">
          <mxGeometry x="105" y="675" width="40" height="40" as="geometry" />
        </mxCell>
        <mxCell id="NMtD7j1RhAjWxaGJVb-m-22" style="edgeStyle=orthogonalEdgeStyle;rounded=0;orthogonalLoop=1;jettySize=auto;html=1;entryX=0.5;entryY=0;entryDx=0;entryDy=0;" edge="1" parent="1c1d494c118603dd-3" source="NMtD7j1RhAjWxaGJVb-m-20" target="60571a20871a0731-5">
          <mxGeometry relative="1" as="geometry">
            <Array as="points" />
          </mxGeometry>
        </mxCell>
        <mxCell id="1c1d494c118603dd-29" style="edgeStyle=orthogonalEdgeStyle;rounded=0;html=1;labelBackgroundColor=none;startArrow=none;startFill=0;startSize=5;endArrow=classicThin;endFill=1;endSize=5;jettySize=auto;orthogonalLoop=1;strokeWidth=1;fontFamily=Verdana;fontSize=12;exitX=1;exitY=0.5;exitDx=0;exitDy=0;" parent="1c1d494c118603dd-1" source="60571a20871a0731-4" target="1c1d494c118603dd-5" edge="1">
          <mxGeometry relative="1" as="geometry">
            <Array as="points">
              <mxPoint x="395" y="90" />
            </Array>
            <mxPoint x="400" y="25" as="sourcePoint" />
          </mxGeometry>
        </mxCell>
        <mxCell id="NMtD7j1RhAjWxaGJVb-m-2" style="edgeStyle=orthogonalEdgeStyle;rounded=0;orthogonalLoop=1;jettySize=auto;html=1;entryX=1;entryY=0.5;entryDx=0;entryDy=0;" edge="1" parent="1c1d494c118603dd-1" source="1c1d494c118603dd-5" target="NMtD7j1RhAjWxaGJVb-m-1">
          <mxGeometry relative="1" as="geometry">
            <Array as="points">
              <mxPoint x="620" y="165" />
            </Array>
          </mxGeometry>
        </mxCell>
        <mxCell id="NMtD7j1RhAjWxaGJVb-m-4" value="" style="edgeStyle=orthogonalEdgeStyle;rounded=0;orthogonalLoop=1;jettySize=auto;html=1;" edge="1" parent="1c1d494c118603dd-1" source="NMtD7j1RhAjWxaGJVb-m-1" target="NMtD7j1RhAjWxaGJVb-m-3">
          <mxGeometry relative="1" as="geometry" />
        </mxCell>
        <mxCell id="NMtD7j1RhAjWxaGJVb-m-6" style="edgeStyle=orthogonalEdgeStyle;rounded=0;orthogonalLoop=1;jettySize=auto;html=1;entryX=0;entryY=0.5;entryDx=0;entryDy=0;" edge="1" parent="1c1d494c118603dd-1" source="NMtD7j1RhAjWxaGJVb-m-3" target="NMtD7j1RhAjWxaGJVb-m-5">
          <mxGeometry relative="1" as="geometry">
            <Array as="points">
              <mxPoint x="121" y="245" />
            </Array>
          </mxGeometry>
        </mxCell>
        <mxCell id="NMtD7j1RhAjWxaGJVb-m-8" style="edgeStyle=orthogonalEdgeStyle;rounded=0;orthogonalLoop=1;jettySize=auto;html=1;entryX=1;entryY=0.5;entryDx=0;entryDy=0;" edge="1" parent="1c1d494c118603dd-1" source="NMtD7j1RhAjWxaGJVb-m-5" target="NMtD7j1RhAjWxaGJVb-m-7">
          <mxGeometry relative="1" as="geometry">
            <Array as="points">
              <mxPoint x="620" y="315" />
            </Array>
          </mxGeometry>
        </mxCell>
        <mxCell id="NMtD7j1RhAjWxaGJVb-m-10" value="" style="edgeStyle=orthogonalEdgeStyle;rounded=0;orthogonalLoop=1;jettySize=auto;html=1;" edge="1" parent="1c1d494c118603dd-1" source="NMtD7j1RhAjWxaGJVb-m-7" target="NMtD7j1RhAjWxaGJVb-m-9">
          <mxGeometry relative="1" as="geometry" />
        </mxCell>
        <mxCell id="NMtD7j1RhAjWxaGJVb-m-15" style="edgeStyle=orthogonalEdgeStyle;rounded=0;orthogonalLoop=1;jettySize=auto;html=1;entryX=0;entryY=0.5;entryDx=0;entryDy=0;" edge="1" parent="1c1d494c118603dd-1" source="NMtD7j1RhAjWxaGJVb-m-9" target="NMtD7j1RhAjWxaGJVb-m-11">
          <mxGeometry relative="1" as="geometry">
            <Array as="points">
              <mxPoint x="125" y="380" />
            </Array>
          </mxGeometry>
        </mxCell>
        <mxCell id="NMtD7j1RhAjWxaGJVb-m-21" value="" style="edgeStyle=orthogonalEdgeStyle;rounded=0;orthogonalLoop=1;jettySize=auto;html=1;" edge="1" parent="1c1d494c118603dd-1" source="NMtD7j1RhAjWxaGJVb-m-14" target="NMtD7j1RhAjWxaGJVb-m-20">
          <mxGeometry relative="1" as="geometry" />
        </mxCell>
        <mxCell id="1c1d494c118603dd-4" value="Kasir" style="swimlane;html=1;startSize=20;" parent="1c1d494c118603dd-1" vertex="1">
          <mxGeometry x="500" y="20" width="250" height="740" as="geometry" />
        </mxCell>
        <mxCell id="1c1d494c118603dd-5" value="Login" style="rounded=1;whiteSpace=wrap;html=1;shadow=0;comic=0;labelBackgroundColor=none;strokeWidth=1;fontFamily=Verdana;fontSize=12;align=center;arcSize=50;" parent="1c1d494c118603dd-4" vertex="1">
          <mxGeometry x="70" y="55" width="100" height="30" as="geometry" />
        </mxCell>
        <mxCell id="NMtD7j1RhAjWxaGJVb-m-5" value="Menambah barang ke keranjang" style="rounded=1;whiteSpace=wrap;html=1;shadow=0;comic=0;labelBackgroundColor=none;strokeWidth=1;fontFamily=Verdana;fontSize=12;align=center;arcSize=50;" vertex="1" parent="1c1d494c118603dd-4">
          <mxGeometry x="48.75" y="195" width="142.5" height="60" as="geometry" />
        </mxCell>
        <mxCell id="NMtD7j1RhAjWxaGJVb-m-17" value="" style="edgeStyle=orthogonalEdgeStyle;rounded=0;orthogonalLoop=1;jettySize=auto;html=1;entryX=0.5;entryY=0;entryDx=0;entryDy=0;" edge="1" parent="1c1d494c118603dd-4" source="NMtD7j1RhAjWxaGJVb-m-11" target="NMtD7j1RhAjWxaGJVb-m-12">
          <mxGeometry relative="1" as="geometry" />
        </mxCell>
        <mxCell id="NMtD7j1RhAjWxaGJVb-m-11" value="Menekan tombol checkout" style="rounded=1;whiteSpace=wrap;html=1;shadow=0;comic=0;labelBackgroundColor=none;strokeWidth=1;fontFamily=Verdana;fontSize=12;align=center;arcSize=50;" vertex="1" parent="1c1d494c118603dd-4">
          <mxGeometry x="48.75" y="335" width="142.5" height="50" as="geometry" />
        </mxCell>
        <mxCell id="NMtD7j1RhAjWxaGJVb-m-18" value="" style="edgeStyle=orthogonalEdgeStyle;rounded=0;orthogonalLoop=1;jettySize=auto;html=1;entryX=0.5;entryY=0;entryDx=0;entryDy=0;" edge="1" parent="1c1d494c118603dd-4" source="NMtD7j1RhAjWxaGJVb-m-12" target="NMtD7j1RhAjWxaGJVb-m-13">
          <mxGeometry relative="1" as="geometry" />
        </mxCell>
        <mxCell id="NMtD7j1RhAjWxaGJVb-m-12" value="Input total yang dibayar" style="rounded=1;whiteSpace=wrap;html=1;shadow=0;comic=0;labelBackgroundColor=none;strokeWidth=1;fontFamily=Verdana;fontSize=12;align=center;arcSize=50;" vertex="1" parent="1c1d494c118603dd-4">
          <mxGeometry x="48.75" y="415" width="142.5" height="50" as="geometry" />
        </mxCell>
        <mxCell id="NMtD7j1RhAjWxaGJVb-m-19" value="" style="edgeStyle=orthogonalEdgeStyle;rounded=0;orthogonalLoop=1;jettySize=auto;html=1;" edge="1" parent="1c1d494c118603dd-4" source="NMtD7j1RhAjWxaGJVb-m-13" target="NMtD7j1RhAjWxaGJVb-m-14">
          <mxGeometry relative="1" as="geometry" />
        </mxCell>
        <mxCell id="NMtD7j1RhAjWxaGJVb-m-13" value="Menulis note (opsional)" style="rounded=1;whiteSpace=wrap;html=1;shadow=0;comic=0;labelBackgroundColor=none;strokeWidth=1;fontFamily=Verdana;fontSize=12;align=center;arcSize=50;" vertex="1" parent="1c1d494c118603dd-4">
          <mxGeometry x="48.75" y="495" width="142.5" height="50" as="geometry" />
        </mxCell>
        <mxCell id="NMtD7j1RhAjWxaGJVb-m-14" value="Menekan tombol konfirmasi checkout" style="rounded=1;whiteSpace=wrap;html=1;shadow=0;comic=0;labelBackgroundColor=none;strokeWidth=1;fontFamily=Verdana;fontSize=12;align=center;arcSize=50;" vertex="1" parent="1c1d494c118603dd-4">
          <mxGeometry x="48.75" y="575" width="142.5" height="50" as="geometry" />
        </mxCell>
      </root>
    </mxGraphModel>
  </diagram>
</mxfile>
